<svg width="120" height="30" viewBox="0 0 120 30" fill="none" xmlns="http://www.w3.org/2000/svg">
<path fill-rule="evenodd" clip-rule="evenodd" d="M16.2162 0V15C7.25966 15 0 8.28481 0 0H16.2162ZM32.4324 15V30C23.4759 30 16.2162 23.2848 16.2162 15H32.4324ZM32.4324 15V0H16.2162C16.2162 8.28481 23.4759 15 32.4324 15ZM16.2162 15H0C0 23.2848 7.25966 30 16.2162 30V15Z" fill="#111111"/>
<path fill-rule="evenodd" clip-rule="evenodd" d="M50.3873 10.6497L45.7985 11.3952C43.8562 11.7265 42.885 12.4602 42.885 13.5962C42.885 14.8978 43.844 15.5486 45.7621 15.5486C47.2431 15.5486 48.3843 15.17 49.1855 14.4126C49.9867 13.6553 50.3873 12.6495 50.3873 11.3952V10.6497ZM44.5967 19.4535C42.4601 19.4535 40.8091 18.9329 39.6437 17.8916C38.4782 16.8502 37.8955 15.4658 37.8955 13.7382C37.8955 12.1052 38.4904 10.8036 39.6801 9.83325C40.8941 8.86294 42.7636 8.18846 45.2886 7.8098L50.3873 7.06432V6.88683C50.3873 5.06454 49.2462 4.1534 46.9639 4.1534C44.8273 4.1534 43.6498 4.91071 43.4313 6.42534H38.3326C38.5025 4.60305 39.2795 3.07659 40.6634 1.84595C42.0473 0.615317 44.1354 0 46.9275 0C49.6954 0 51.7834 0.603485 53.1916 1.81045C54.5998 3.01742 55.304 4.72138 55.304 6.92233V15.6906C55.304 17.0869 55.4861 18.1992 55.8502 19.0275H50.8608C50.8365 19.0275 50.8122 18.9447 50.788 18.779L50.6787 18.0335C50.6544 17.6786 50.6423 17.3236 50.6423 16.9686C49.4526 18.6252 47.4374 19.4535 44.5967 19.4535ZM90.7311 19.4535C93.7175 19.4535 96.1333 18.5187 97.9785 16.6491C99.8238 14.7558 100.746 12.4484 100.746 9.72676C100.746 7.00516 99.8238 4.70955 97.9785 2.83993C96.1333 0.946643 93.7175 0 90.7311 0C87.7447 0 85.3289 0.946643 83.4837 2.83993C81.6384 4.70955 80.7158 7.00516 80.7158 9.72676C80.7158 12.4484 81.6384 14.7558 83.4837 16.6491C85.3289 18.5187 87.7447 19.4535 90.7311 19.4535ZM85.8873 9.72676C85.8873 8.0938 86.3365 6.804 87.2349 5.85735C88.1575 4.91071 89.3229 4.43739 90.7311 4.43739C92.1393 4.43739 93.2926 4.91071 94.1909 5.85735C95.1136 6.804 95.5749 8.0938 95.5749 9.72676C95.5749 11.3597 95.1136 12.6495 94.1909 13.5962C93.2926 14.5428 92.1393 15.0161 90.7311 15.0161C89.3229 15.0161 88.1575 14.5428 87.2349 13.5962C86.3365 12.6495 85.8873 11.3597 85.8873 9.72676ZM119.779 0.425992H113.552L109.764 5.75086L105.977 0.425992H99.7489L106.851 9.58476L99.5304 19.0275H105.758L109.764 13.3832L113.77 19.0275H119.998L112.678 9.58476L119.779 0.425992ZM81.3864 0.284001V5.00538C81.0222 4.93438 80.6823 4.89888 80.3667 4.89888C78.8371 4.89888 77.6838 5.28937 76.9068 6.07036C76.1542 6.85134 75.7779 8.08197 75.7779 9.76226V19.0275H70.6063V0.425995H75.3772V2.83994C76.4698 1.11231 78.2665 0.2485 80.7673 0.2485L81.3864 0.284001ZM69.2571 5.00538V0.284001L68.638 0.2485C66.1372 0.2485 64.3405 1.11231 63.2479 2.83994V0.425995H58.477V19.0275H63.6485V9.76226C63.6485 8.08197 64.0249 6.85134 64.7775 6.07036C65.5545 5.28937 66.7077 4.89888 68.2374 4.89888C68.553 4.89888 68.8929 4.93438 69.2571 5.00538ZM54.5235 29.5587C55.0024 29.8529 55.559 30 56.1933 30C56.588 30 56.9278 29.9542 57.2126 29.8627C57.4973 29.7646 57.7433 29.6241 57.9504 29.441C58.1639 29.2514 58.3516 29.0226 58.5134 28.7546L58.5814 29.8823H59.3289V26.2147H56.533V26.862H58.494C58.4422 27.6007 58.2319 28.1858 57.863 28.6173C57.4941 29.0488 56.9472 29.2645 56.2224 29.2645C55.7564 29.2645 55.3422 29.1534 54.9798 28.9311C54.6238 28.7088 54.3456 28.3885 54.1449 27.9701C53.9443 27.5451 53.844 27.0417 53.844 26.4599C53.844 25.878 53.9443 25.3779 54.1449 24.9595C54.3456 24.5411 54.6303 24.2208 54.9992 23.9985C55.3746 23.7697 55.8114 23.6553 56.3097 23.6553C56.8469 23.6553 57.2838 23.7762 57.6203 24.0181C57.9568 24.26 58.1704 24.5869 58.261 24.9987H59.2027C59.0603 24.3384 58.7334 23.8252 58.2222 23.4591C57.7109 23.0865 57.0734 22.9002 56.3097 22.9002C55.6367 22.9002 55.051 23.0505 54.5527 23.3513C54.0608 23.652 53.679 24.0704 53.4071 24.6065C53.1418 25.1426 53.0091 25.7604 53.0091 26.4599C53.0091 27.166 53.1418 27.7838 53.4071 28.3133C53.6725 28.8428 54.0446 29.258 54.5235 29.5587ZM102.609 30C101.969 30 101.412 29.8529 100.94 29.5587C100.474 29.258 100.111 28.8428 99.8525 28.3133C99.6001 27.7772 99.4739 27.1561 99.4739 26.4501C99.4739 25.744 99.6001 25.1262 99.8525 24.5967C100.111 24.0606 100.474 23.6455 100.94 23.3513C101.412 23.0505 101.969 22.9002 102.609 22.9002C103.38 22.9002 104.004 23.0865 104.483 23.4591C104.962 23.8318 105.269 24.3581 105.405 25.038H104.522C104.412 24.613 104.198 24.2731 103.881 24.0181C103.571 23.7566 103.147 23.6258 102.609 23.6258C102.143 23.6258 101.736 23.7403 101.386 23.9691C101.043 24.1913 100.778 24.515 100.59 24.9399C100.403 25.3583 100.309 25.8617 100.309 26.4501C100.309 27.0385 100.403 27.5451 100.59 27.9701C100.778 28.3885 101.043 28.7121 101.386 28.9409C101.736 29.1632 102.143 29.2743 102.609 29.2743C103.147 29.2743 103.571 29.1501 103.881 28.9017C104.198 28.6467 104.412 28.31 104.522 27.8916H105.405C105.269 28.5519 104.962 29.0684 104.483 29.441C104.004 29.8137 103.38 30 102.609 30ZM116.926 29.8823V27.2738L114.712 23.0178H115.635L117.334 26.4893L119.032 23.0178H119.945L117.741 27.2738V29.8823H116.926ZM84.0647 23.0178V29.8823H84.8801V24.3711L88.5011 29.8823H89.3165V23.0178H88.5011V28.529L84.8801 23.0178H84.0647ZM69.6066 29.8823V23.0178H73.8101V23.6945H70.4221V26.0872H73.5188V26.7541H70.4221V29.2057H73.8101V29.8823H69.6066ZM37.8359 29.8823L40.3405 23.0178H41.2045L43.6994 29.8823H42.8257L42.2031 28.1172H39.3187L38.6902 29.8823H37.8359ZM40.7677 24.0475L41.9679 27.4503H39.5561L40.7677 24.0475Z" fill="#111111"/>
</svg>
